<?xml version="1.0" encoding="UTF-8"?><svg id="a" xmlns="http://www.w3.org/2000/svg" viewBox="0 0 266.89 272.18"><defs><style>.b{fill:#fff;}</style></defs><path class="b" d="M266.78,241.76L245.79,10.21c-.52-5.78-5.37-10.21-11.17-10.21H32.28c-5.8,0-10.65,4.43-11.17,10.21L.12,241.76c-1.48,16.33,11.38,30.41,27.78,30.41H239c16.4,0,29.26-14.08,27.78-30.41Zm-63.41-170.18c0,15.44-14.21,28-31.68,28H95.21c-17.47,0-31.68-12.56-31.68-28v-30.05c0-4.97,4.03-9,9-9s9,4.03,9,9v30.05c0,5.42,6.27,10,13.68,10h76.48c7.42,0,13.68-4.58,13.68-10v-30.05c0-4.97,4.03-9,9-9s9,4.03,9,9v30.05Z"/></svg>